<?xml version="1.0" encoding="UTF-8" standalone="no"?>
<!-- Created with Inkscape (http://www.inkscape.org/) -->

<svg
   xmlns:dc="http://purl.org/dc/elements/1.1/"
   xmlns:cc="http://creativecommons.org/ns#"
   xmlns:rdf="http://www.w3.org/1999/02/22-rdf-syntax-ns#"
   xmlns:svg="http://www.w3.org/2000/svg"
   xmlns="http://www.w3.org/2000/svg"
   xmlns:sodipodi="http://sodipodi.sourceforge.net/DTD/sodipodi-0.dtd"
   xmlns:inkscape="http://www.inkscape.org/namespaces/inkscape"
   id="svg2"
   version="1.1"
   inkscape:version="0.91 r13725"
   width="32"
   height="32"
   viewBox="0 0 32 32"
   sodipodi:docname="adventure.svg">
  <metadata
     id="metadata8">
    <rdf:RDF>
      <cc:Work
         rdf:about="">
        <dc:format>image/svg+xml</dc:format>
        <dc:type
           rdf:resource="http://purl.org/dc/dcmitype/StillImage" />
        <dc:title></dc:title>
      </cc:Work>
    </rdf:RDF>
  </metadata>
  <defs
     id="defs6" />
  <sodipodi:namedview
     pagecolor="#ffffff"
     bordercolor="#666666"
     borderopacity="1"
     objecttolerance="10"
     gridtolerance="10"
     guidetolerance="10"
     inkscape:pageopacity="0"
     inkscape:pageshadow="2"
     inkscape:window-width="1366"
     inkscape:window-height="744"
     id="namedview4"
     showgrid="false"
     inkscape:zoom="7.375"
     inkscape:cx="-7.9322034"
     inkscape:cy="16"
     inkscape:window-x="0"
     inkscape:window-y="24"
     inkscape:window-maximized="1"
     inkscape:current-layer="svg2" />
  <path
     style="fill:#000000"
     d="m 1.9951194,18.002685 0,-10.0000005 3.995105,-2.002685 3.9951052,-2.0026847 5.0038544,1.997861 5.003855,1.9978613 3.417707,-1.3652053 C 25.290485,5.8769691 27.543151,4.9793061 28.41667,4.6330255 L 30.004887,4.0034241 29.916667,14.0359 29.828447,24.068376 24.911671,26.031078 19.994894,27.993781 14.990109,25.995548 9.9853236,23.997315 5.9902185,26 l -3.995105,2.002685 0,-10 z m 22.1813936,6.19349 3.65194,-1.468037 0.08946,-7.903308 c 0.07107,-6.2785635 0.0025,-7.8683062 -0.333333,-7.7330432 -0.232534,0.093646 -2.037777,0.81167 -4.011651,1.5956087 L 19.984064,10.112739 15.235066,8.2218088 C 12.623118,7.1817975 10.30281,6.3308791 10.078827,6.3308791 c -0.2239834,0 -1.6844474,0.6334287 -3.2454746,1.407619 l -2.838233,1.4076191 0,7.7590478 c 0,4.267476 0.07279,7.759048 0.161768,7.759048 0.08897,0 1.43166,-0.629802 2.98375,-1.39956 l 2.8219822,-1.39956 4.5995834,1.867877 c 2.529771,1.027332 4.906211,1.882134 5.280977,1.89956 0.374766,0.01743 2.324766,-0.628934 4.333333,-1.436355 z M 22.057397,20.89717 c -0.67213,-0.715449 -0.682912,-0.802798 -0.163251,-1.322459 0.519661,-0.519662 0.519388,-0.597325 -0.0041,-1.175819 -0.528245,-0.583704 -0.516401,-0.660886 0.205492,-1.339069 0.72105,-0.677391 0.799339,-0.686371 1.332835,-0.152875 0.533496,0.533496 0.600081,0.533496 1.133577,0 0.533496,-0.533496 0.611786,-0.524516 1.332836,0.152875 0.716984,0.673572 0.730747,0.758669 0.214882,1.328693 -0.512664,0.566487 -0.512664,0.651573 0,1.21806 0.515865,0.570024 0.502102,0.655121 -0.214882,1.328693 -0.715449,0.67213 -0.802798,0.682912 -1.32246,0.163251 -0.519661,-0.519661 -0.597325,-0.519388 -1.175818,0.0041 -0.583705,0.528245 -0.660886,0.516401 -1.33907,-0.205492 z M 7.3145686,18.480817 c -0.3542601,-0.426858 -0.3323711,-0.613206 0.125852,-1.071429 0.517377,-0.517377 0.592022,-0.517377 1.109398,0 0.458224,0.458223 0.480112,0.644571 0.125852,1.071429 -0.235866,0.284201 -0.542114,0.516729 -0.680551,0.516729 -0.138437,0 -0.444685,-0.232528 -0.680551,-0.516729 z m 1,-3 c -0.35426,-0.426858 -0.332371,-0.613206 0.125852,-1.071429 0.517377,-0.517377 0.592022,-0.517377 1.109398,0 0.4582234,0.458223 0.4801124,0.644571 0.125852,1.071429 -0.235866,0.284201 -0.542114,0.516729 -0.680551,0.516729 -0.138437,0 -0.444685,-0.232528 -0.680551,-0.516729 z m 11.0000004,0 c -0.35426,-0.426858 -0.332371,-0.613206 0.125852,-1.071429 0.517376,-0.517377 0.592022,-0.517377 1.109398,0 0.458223,0.458223 0.480112,0.644571 0.125852,1.071429 -0.235866,0.284201 -0.542114,0.516729 -0.680551,0.516729 -0.138437,0 -0.444685,-0.232528 -0.680551,-0.516729 z m -9,-2 c -0.3542604,-0.426858 -0.3323714,-0.613206 0.125852,-1.071429 0.517376,-0.517377 0.592022,-0.517377 1.109398,0 0.458223,0.458223 0.480112,0.644571 0.125852,1.071429 -0.235866,0.284201 -0.542114,0.516729 -0.680551,0.516729 -0.138437,0 -0.444685,-0.232528 -0.680551,-0.516729 z m 6,0 c -0.35426,-0.426858 -0.332371,-0.613206 0.125852,-1.071429 0.517376,-0.517377 0.592022,-0.517377 1.109398,0 0.458223,0.458223 0.480112,0.644571 0.125852,1.071429 -0.235866,0.284201 -0.542114,0.516729 -0.680551,0.516729 -0.138437,0 -0.444685,-0.232528 -0.680551,-0.516729 z m -3,-1 c -0.35426,-0.426858 -0.332371,-0.613206 0.125852,-1.071429 0.517376,-0.517377 0.592022,-0.517377 1.109398,0 0.458223,0.458223 0.480112,0.644571 0.125852,1.071429 -0.235866,0.284201 -0.542114,0.516729 -0.680551,0.516729 -0.138437,0 -0.444685,-0.232528 -0.680551,-0.516729 z"
     id="path3338"
     inkscape:connector-curvature="0" />
</svg>
