<?xml version="1.0"?>
<svg xmlns="http://www.w3.org/2000/svg" xmlns:xlink="http://www.w3.org/1999/xlink" version="1.1" viewBox="0 0 252 252" width="48px" height="48px"><g fill="none" fill-rule="nonzero" stroke="none" stroke-width="1" stroke-linecap="butt" stroke-linejoin="miter" stroke-miterlimit="10" stroke-dasharray="" stroke-dashoffset="0" font-family="none" font-weight="none" font-size="none" text-anchor="none" style="mix-blend-mode: normal"><path d="M0,252v-252h252v252z" fill="none"/><path d="M126,252c-69.58788,0 -126,-56.41212 -126,-126v0c0,-69.58788 56.41212,-126 126,-126v0c69.58788,0 126,56.41212 126,126v0c0,69.58788 -56.41212,126 -126,126z" fill="#2980b9"/><g><g id="surface1"><path d="M126,191.1l-21,-25.2v-25.2h42v25.2z" fill="#ff9800"/><path d="M172.2,115.5c0,4.64297 -3.75703,8.4 -8.4,8.4c-4.64297,0 -8.4,-3.75703 -8.4,-8.4c0,-4.64297 3.75703,-8.4 8.4,-8.4c4.64297,0 8.4,3.75703 8.4,8.4M96.6,115.5c0,-4.64297 -3.75703,-8.4 -8.4,-8.4c-4.64297,0 -8.4,3.75703 -8.4,8.4c0,4.64297 3.75703,8.4 8.4,8.4c4.64297,0 8.4,-3.75703 8.4,-8.4" fill="#ffa726"/><path d="M163.8,90.3c0,-32.07422 -75.6,-20.88516 -75.6,0v29.4c0,20.88516 16.91484,37.8 37.8,37.8c20.88516,0 37.8,-16.91484 37.8,-37.8z" fill="#ffb74d"/><path d="M126,52.5c-25.51172,0 -42,20.68828 -42,46.2v9.59766l8.4,7.20234v-21l50.4,-16.8l16.8,16.8v21l8.4,-7.31719v-9.48281c0,-16.89844 -4.36406,-33.66562 -25.2,-37.8l-4.2,-8.4z" fill="#424242"/><path d="M138.6,115.5c0,-2.31328 1.88672,-4.2 4.2,-4.2c2.31328,0 4.2,1.88672 4.2,4.2c0,2.31328 -1.88672,4.2 -4.2,4.2c-2.31328,0 -4.2,-1.88672 -4.2,-4.2M105,115.5c0,2.31328 1.88672,4.2 4.2,4.2c2.31328,0 4.2,-1.88672 4.2,-4.2c0,-2.31328 -1.88672,-4.2 -4.2,-4.2c-2.31328,0 -4.2,1.88672 -4.2,4.2" fill="#784719"/><path d="M126,216.3l-21,-50.4l21,4.2l21,-4.2z" fill="#ffffff"/><path d="M121.8,182.7l-2.80547,18.75234l7.00547,16.8l7.00547,-16.8l-2.80547,-18.75234l4.2,-4.2l-8.4,-8.4l-8.4,8.4z" fill="#d32f2f"/><path d="M147,165.9l-21,50.4l-21,-50.4c0,0 -46.2,8.33438 -46.2,54.6h134.4c0,-46.10156 -46.2,-54.6 -46.2,-54.6" fill="#3f51b5"/></g></g></g></svg>
